<svg width="400" height="300" xmlns="http://www.w3.org/2000/svg">
  <!-- 배경 -->
  <rect width="400" height="300" fill="#ff533f"/>
  
  <!-- 헤더 -->
  <rect x="0" y="0" width="400" height="60" fill="#ff533f"/>
  <text x="50" y="35" font-family="Arial, sans-serif" font-size="24" font-weight="bold" fill="white">NeedIt.</text>
  <text x="50" y="50" font-family="Arial, sans-serif" font-size="12" fill="rgba(255,255,255,0.8)">관리자 페이지</text>
  
  <!-- 메인 콘텐츠 영역 -->
  <rect x="20" y="80" width="360" height="200" rx="10" fill="white"/>
  
  <!-- 상단 메뉴 -->
  <rect x="30" y="90" width="80" height="30" rx="5" fill="#ff533f"/>
  <text x="70" y="108" font-family="Arial, sans-serif" font-size="12" fill="white" text-anchor="middle">신고접수 목록</text>
  
  <rect x="120" y="90" width="80" height="30" rx="5" fill="#e9ecef"/>
  <text x="160" y="108" font-family="Arial, sans-serif" font-size="12" fill="#333" text-anchor="middle">업체요청 목록</text>
  
  <rect x="210" y="90" width="80" height="30" rx="5" fill="#ffc107"/>
  <text x="250" y="108" font-family="Arial, sans-serif" font-size="12" fill="white" text-anchor="middle">게시판 수정</text>
  
  <rect x="300" y="90" width="70" height="30" rx="5" fill="#28a745"/>
  <text x="335" y="108" font-family="Arial, sans-serif" font-size="12" fill="white" text-anchor="middle">공지등록</text>
  
  <!-- 검색 영역 -->
  <rect x="280" y="140" width="80" height="25" rx="5" fill="#f8f9fa" stroke="#dee2e6"/>
  <text x="285" y="155" font-family="Arial, sans-serif" font-size="10" fill="#666">검색어 입력</text>
  
  <!-- 버튼들 -->
  <rect x="30" y="140" width="40" height="25" rx="3" fill="#007bff"/>
  <text x="50" y="155" font-family="Arial, sans-serif" font-size="10" fill="white" text-anchor="middle">전체</text>
  
  <rect x="80" y="140" width="40" height="25" rx="3" fill="#6c757d"/>
  <text x="100" y="155" font-family="Arial, sans-serif" font-size="10" fill="white" text-anchor="middle">처리중</text>
  
  <!-- 테이블 헤더 -->
  <rect x="30" y="180" width="340" height="25" fill="#f8f9fa"/>
  <text x="40" y="195" font-family="Arial, sans-serif" font-size="10" fill="#333">번호</text>
  <text x="80" y="195" font-family="Arial, sans-serif" font-size="10" fill="#333">제목</text>
  <text x="200" y="195" font-family="Arial, sans-serif" font-size="10" fill="#333">작성자</text>
  <text x="280" y="195" font-family="Arial, sans-serif" font-size="10" fill="#333">등록일</text>
  <text x="340" y="195" font-family="Arial, sans-serif" font-size="10" fill="#333">상태</text>
  
  <!-- 테이블 데이터 -->
  <rect x="30" y="205" width="340" height="20" fill="white"/>
  <text x="40" y="217" font-family="Arial, sans-serif" font-size="9" fill="#333">001</text>
  <text x="80" y="217" font-family="Arial, sans-serif" font-size="9" fill="#333">사기 신고합니다</text>
  <text x="200" y="217" font-family="Arial, sans-serif" font-size="9" fill="#333">user123</text>
  <text x="280" y="217" font-family="Arial, sans-serif" font-size="9" fill="#333">2024-08-19</text>
  
  <rect x="30" y="225" width="340" height="20" fill="#f8f9fa"/>
  <text x="40" y="237" font-family="Arial, sans-serif" font-size="9" fill="#333">002</text>
  <text x="80" y="237" font-family="Arial, sans-serif" font-size="9" fill="#333">물건 반납 안됨</text>
  <text x="200" y="237" font-family="Arial, sans-serif" font-size="9" fill="#333">user456</text>
  <text x="280" y="237" font-family="Arial, sans-serif" font-size="9" fill="#333">2024-08-18</text>
  
  <rect x="30" y="245" width="340" height="20" fill="white"/>
  <text x="40" y="257" font-family="Arial, sans-serif" font-size="9" fill="#333">003</text>
  <text x="80" y="257" font-family="Arial, sans-serif" font-size="9" fill="#333">부적절한 게시물</text>
  <text x="200" y="257" font-family="Arial, sans-serif" font-size="9" fill="#333">user789</text>
  <text x="280" y="257" font-family="Arial, sans-serif" font-size="9" fill="#333">2024-08-17</text>
</svg>