<svg width="400" height="300" xmlns="http://www.w3.org/2000/svg">
  <defs>
    <linearGradient id="bg" x1="0%" y1="0%" x2="100%" y2="100%">
      <stop offset="0%" style="stop-color:#667eea;stop-opacity:1" />
      <stop offset="100%" style="stop-color:#764ba2;stop-opacity:1" />
    </linearGradient>
  </defs>
  
  <!-- 배경 -->
  <rect width="400" height="300" fill="url(#bg)"/>
  
  <!-- 폰 프레임 -->
  <rect x="150" y="30" width="100" height="240" rx="20" fill="#000"/>
  <rect x="154" y="34" width="92" height="232" rx="16" fill="white"/>
  
  <!-- 노치 -->
  <rect x="187" y="34" width="26" height="8" rx="4" fill="#000"/>
  
  <!-- 상태바 -->
  <text x="160" y="55" font-family="Arial, sans-serif" font-size="8" fill="#000">9:41</text>
  <text x="235" y="55" font-family="Arial, sans-serif" font-size="6" fill="#000">100%</text>
  
  <!-- 앱 헤더 -->
  <rect x="154" y="60" width="92" height="40" fill="url(#bg)"/>
  <text x="200" y="78" font-family="Arial, sans-serif" font-size="10" font-weight="bold" fill="white" text-anchor="middle">TaskFlow</text>
  <text x="200" y="90" font-family="Arial, sans-serif" font-size="6" fill="white" text-anchor="middle">생산성 관리 앱</text>
  
  <!-- 기능 카드들 -->
  <rect x="160" y="110" width="35" height="30" rx="6" fill="#f8f9fa"/>
  <rect x="205" y="110" width="35" height="30" rx="6" fill="#f8f9fa"/>
  <rect x="160" y="150" width="35" height="30" rx="6" fill="#f8f9fa"/>
  <rect x="205" y="150" width="35" height="30" rx="6" fill="#f8f9fa"/>
  
  <!-- 통계 섹션 -->
  <rect x="160" y="190" width="80" height="40" rx="8" fill="white"/>
  <text x="200" y="205" font-family="Arial, sans-serif" font-size="8" font-weight="bold" fill="#333" text-anchor="middle">오늘의 성과</text>
  <text x="175" y="220" font-family="Arial, sans-serif" font-size="10" font-weight="bold" fill="#333" text-anchor="middle">12</text>
  <text x="200" y="220" font-family="Arial, sans-serif" font-size="10" font-weight="bold" fill="#333" text-anchor="middle">5</text>
  <text x="225" y="220" font-family="Arial, sans-serif" font-size="10" font-weight="bold" fill="#333" text-anchor="middle">85%</text>
  
  <!-- 하단 네비게이션 -->
  <rect x="154" y="240" width="92" height="20" fill="white"/>
  <circle cx="170" cy="250" r="3" fill="url(#bg)"/>
  <circle cx="190" cy="250" r="3" fill="#ccc"/>
  <circle cx="210" cy="250" r="3" fill="#ccc"/>
  <circle cx="230" cy="250" r="3" fill="#ccc"/>
</svg>